<svg xmlns="http://www.w3.org/2000/svg" version="1.1" xmlns:xlink="http://www.w3.org/1999/xlink" xmlns:svgjs="http://svgjs.dev/svgjs" width="1000" height="1000" viewBox="0 0 1000 1000"><rect width="1000" height="1000" fill="#003366"></rect><g transform="matrix(0.7,0,0,0.7,150.2265619036994,141.8902225019313)"><svg viewBox="0 0 241 247" data-background-color="#003366" preserveAspectRatio="xMidYMid meet" height="1024" width="1000" xmlns="http://www.w3.org/2000/svg" xmlns:xlink="http://www.w3.org/1999/xlink"><g id="tight-bounds" transform="matrix(1,0,0,1,-0.0780014504433666,-0.10000230560686418)"><svg viewBox="0 0 241.1559902200489 247.2" height="247.2" width="241.1559902200489"><g><svg viewBox="0 0 241.1559902200489 247.2" height="247.2" width="241.1559902200489"><g><svg viewBox="0 0 241.1559902200489 247.2" height="247.2" width="241.1559902200489"><g id="textblocktransform"><svg viewBox="0 0 241.1559902200489 247.2" height="247.2" width="241.1559902200489" id="textblock"><g><svg viewBox="0 0 241.1559902200489 247.2" height="247.2" width="241.1559902200489"><g transform="matrix(1,0,0,1,0,0)"><svg width="241.1559902200489" viewBox="-2.8499999046325684 -36.79999923706055 39.89999771118164 40.89999771118164" height="247.2" data-palette-color="#ffffff"><path d="M35.55-4.2L35.55-4.2Q35.55-2.25 32.9-1.6L32.9-1.6Q32.75-1.6 32.75-1.8 32.75-2 33.1-2.25L33.1-2.25Q34.1-3 34.1-3.9L34.1-3.9Q34.1-5.65 31.3-6.45L31.3-6.45Q27.6-1.9 21.03 1.1 14.45 4.1 9.35 4.1 4.25 4.1 4.25 2L4.25 2Q4.25 0.25 7.73-2.18 11.2-4.6 16.68-6.43 22.15-8.25 27-8.25L27-8.25Q29.4-8.25 31.1-7.9L31.1-7.9Q32.65-10.65 32.65-13.65L32.65-13.65Q32.65-15.4 31.1-16.57 29.55-17.75 26.95-17.75 24.35-17.75 22-16.7L22-16.7Q21.5-16.35 21.2-16.35L21.2-16.35Q20.65-16.35 20.65-16.63 20.65-16.9 21.4-17.3L21.4-17.3Q22.5-17.65 25.63-20 28.75-22.35 31.73-25.73 34.7-29.1 34.7-31.4L34.7-31.4Q34.7-35.15 26.6-35.15L26.6-35.15Q20.9-35.15 14.48-32.83 8.05-30.5 3.65-26.78-0.75-23.05-0.75-19.5L-0.75-19.5Q-0.75-17.6 1.6-17.6L1.6-17.6Q4.95-17.6 8.2-19.28 11.45-20.95 16.7-25.35L16.7-25.35Q17.35-26.1 17.6-26.1L17.6-26.1Q18.15-26.1 18.15-25.75L18.15-25.75Q18.15-25.65 17.8-25.05L17.8-25.05Q16.5-23.75 14.15-21.9 11.8-20.05 9.8-18.8 7.8-17.55 5.28-16.55 2.75-15.55 0.7-15.55L0.7-15.55Q-2.85-15.55-2.85-18.7L-2.85-18.7Q-2.85-22.8 2.5-27.13 7.85-31.45 15.08-34.13 22.3-36.8 28-36.8L28-36.8Q37.05-36.8 37.05-32.35L37.05-32.35Q37.05-29.1 32.73-24.68 28.4-20.25 24.95-18.6L24.95-18.6Q26.5-18.9 27.85-18.9L27.85-18.9Q31-18.9 32.7-17.7 34.4-16.5 34.4-14.45L34.4-14.45Q34.4-10.95 32.15-7.6L32.15-7.6Q35.55-6.6 35.55-4.2ZM26.45-7.05L26.45-7.05Q22.65-7.05 17.85-5.45 13.05-3.85 9.83-1.8 6.6 0.25 6.6 1.53 6.6 2.8 9.68 2.8 12.75 2.8 16.43 1.83 20.1 0.85 24.13-1.43 28.15-3.7 30.3-6.7L30.3-6.7Q28.4-7.05 26.45-7.05ZM26.75-32.15L27-31.95Q27-31.8 21.18-21.75 15.35-11.7 12.6-7.1L12.6-7.1Q12.3-6.45 11.5-6.1 10.7-5.75 10.28-5.75 9.85-5.75 9.85-5.98 9.85-6.2 13.55-12.43 17.25-18.65 20.93-24.8 24.6-30.95 24.5-31L24.5-31Q24.8-31.5 25.5-31.75L25.5-31.75 26.75-32.15Z" opacity="1" transform="matrix(1,0,0,1,0,0)" fill="#ffffff" class="undefined-text-0" data-fill-palette-color="primary" id="text-0"></path></svg></g></svg></g></svg></g></svg></g></svg></g><defs></defs></svg><rect width="241.1559902200489" height="247.2" fill="none" stroke="none" visibility="hidden"></rect></g></svg></g></svg>